<?xml version="1.0" encoding="UTF-8" standalone="no"?>
<!DOCTYPE svg PUBLIC "-//W3C//DTD SVG 1.1//EN"
 "http://www.w3.org/Graphics/SVG/1.1/DTD/svg11.dtd">
<!-- Generated by graphviz version 2.38.0 (20140413.2041)
 -->
<!-- Title: g Pages: 1 -->
<svg width="937pt" height="246pt"
 viewBox="0.00 0.00 937.00 245.56" xmlns="http://www.w3.org/2000/svg" xmlns:xlink="http://www.w3.org/1999/xlink">
<g id="graph0" class="graph" transform="scale(1 1) rotate(0) translate(4 241.555)">
<title>g</title>
<polygon fill="white" stroke="none" points="-4,4 -4,-241.555 933,-241.555 933,4 -4,4"/>
<text text-anchor="start" x="172" y="-7.8" font-family="Times,serif" font-size="14.00">All missing edges are intended to &quot;crash&quot; the machine. A crash indicates that the input string was rejected.</text>
<!-- S -->
<g id="node1" class="node"><title>S</title>
<ellipse fill="none" stroke="none" cx="27" cy="-129.555" rx="27" ry="18"/>
</g>
<!-- q1 -->
<g id="node2" class="node"><title>q1</title>
<ellipse fill="none" stroke="black" cx="118" cy="-129.555" rx="27" ry="18"/>
<text text-anchor="start" x="111" y="-126.855" font-family="Times,serif" font-style="italic" font-size="14.00">q</text>
<text text-anchor="start" x="118" y="-126.855" font-family="Times,serif" font-style="italic" baseline-shift="sub" font-size="14.00">1</text>
</g>
<!-- S&#45;&gt;q1 -->
<g id="edge1" class="edge"><title>S&#45;&gt;q1</title>
<path fill="none" stroke="black" d="M54.2216,-129.555C62.5505,-129.555 71.9135,-129.555 80.8161,-129.555"/>
<polygon fill="black" stroke="black" points="80.9659,-133.055 90.9659,-129.555 80.9658,-126.055 80.9659,-133.055"/>
</g>
<!-- q2 -->
<g id="node3" class="node"><title>q2</title>
<ellipse fill="none" stroke="black" cx="257" cy="-129.555" rx="27" ry="18"/>
<text text-anchor="start" x="250" y="-126.855" font-family="Times,serif" font-style="italic" font-size="14.00">q</text>
<text text-anchor="start" x="257" y="-126.855" font-family="Times,serif" font-style="italic" baseline-shift="sub" font-size="14.00">2</text>
</g>
<!-- q1&#45;&gt;q2 -->
<g id="edge2" class="edge"><title>q1&#45;&gt;q2</title>
<path fill="none" stroke="black" d="M145.091,-129.555C166.096,-129.555 195.873,-129.555 219.285,-129.555"/>
<polygon fill="black" stroke="black" points="219.539,-133.055 229.539,-129.555 219.539,-126.055 219.539,-133.055"/>
<text text-anchor="start" x="163" y="-133.355" font-family="Times,serif" font-size="14.00">$, ε → $</text>
</g>
<!-- q2&#45;&gt;q2 -->
<g id="edge3" class="edge"><title>q2&#45;&gt;q2</title>
<path fill="none" stroke="black" d="M245.15,-145.845C242.292,-155.944 246.242,-165.555 257,-165.555 263.892,-165.555 267.99,-161.611 269.294,-156.121"/>
<polygon fill="black" stroke="black" points="272.778,-155.685 268.85,-145.845 265.785,-155.987 272.778,-155.685"/>
<text text-anchor="start" x="234.5" y="-169.355" font-family="Times,serif" font-size="14.00">(, ε → (</text>
</g>
<!-- q3 -->
<g id="node4" class="node"><title>q3</title>
<ellipse fill="none" stroke="black" cx="596.5" cy="-42.5552" rx="27" ry="18"/>
<text text-anchor="start" x="589.5" y="-39.8552" font-family="Times,serif" font-style="italic" font-size="14.00">q</text>
<text text-anchor="start" x="596.5" y="-39.8552" font-family="Times,serif" font-style="italic" baseline-shift="sub" font-size="14.00">3</text>
</g>
<!-- q2&#45;&gt;q3 -->
<g id="edge4" class="edge"><title>q2&#45;&gt;q3</title>
<path fill="none" stroke="black" d="M263.424,-111.829C269.705,-94.6678 281.856,-69.5386 302,-57.5552 383.94,-8.80962 502.643,-23.2359 560.777,-34.5819"/>
<polygon fill="black" stroke="black" points="560.406,-38.0784 570.904,-36.6487 561.806,-31.2198 560.406,-38.0784"/>
<text text-anchor="start" x="351.5" y="-61.3552" font-family="Times,serif" font-size="14.00">{0, 1, 2, …, 9}, ε → ε</text>
</g>
<!-- q4 -->
<g id="node5" class="node"><title>q4</title>
<ellipse fill="none" stroke="black" cx="596.5" cy="-186.555" rx="27" ry="18"/>
<text text-anchor="start" x="589.5" y="-183.855" font-family="Times,serif" font-style="italic" font-size="14.00">q</text>
<text text-anchor="start" x="596.5" y="-183.855" font-family="Times,serif" font-style="italic" baseline-shift="sub" font-size="14.00">4</text>
</g>
<!-- q2&#45;&gt;q4 -->
<g id="edge6" class="edge"><title>q2&#45;&gt;q4</title>
<path fill="none" stroke="black" d="M267.966,-146.481C275.675,-157.812 287.472,-171.836 302,-178.555 387.803,-218.237 503.321,-204.623 560.469,-194.107"/>
<polygon fill="black" stroke="black" points="561.28,-197.515 570.441,-192.193 559.96,-190.641 561.28,-197.515"/>
<text text-anchor="start" x="302" y="-208.355" font-family="Times,serif" font-size="14.00">{a, b, c, …, z, A, B, C, …, Z, _}, ε → ε</text>
</g>
<!-- q3&#45;&gt;q2 -->
<g id="edge11" class="edge"><title>q3&#45;&gt;q2</title>
<path fill="none" stroke="black" d="M574.812,-53.6657C561.748,-60.1933 544.311,-68.0278 528,-72.5552 430.475,-99.6243 396.972,-65.5643 302,-100.555 295.69,-102.88 289.377,-106.26 283.582,-109.898"/>
<polygon fill="black" stroke="black" points="281.303,-107.214 274.977,-115.713 285.222,-113.014 281.303,-107.214"/>
<text text-anchor="start" x="364.5" y="-104.355" font-family="Times,serif" font-size="14.00">{+, &#45;, *, /}, ε → ε</text>
</g>
<!-- q3&#45;&gt;q3 -->
<g id="edge5" class="edge"><title>q3&#45;&gt;q3</title>
<path fill="none" stroke="black" d="M581.273,-57.7218C576.659,-68.2192 581.734,-78.5552 596.5,-78.5552 606.421,-78.5552 611.967,-73.8893 613.139,-67.6436"/>
<polygon fill="black" stroke="black" points="616.601,-67.1287 611.727,-57.7218 609.671,-68.1153 616.601,-67.1287"/>
<text text-anchor="start" x="533" y="-82.3552" font-family="Times,serif" font-size="14.00">{0, 1, 2, …, 9}, ε → ε</text>
</g>
<!-- q5 -->
<g id="node6" class="node"><title>q5</title>
<ellipse fill="none" stroke="black" cx="755" cy="-105.555" rx="27" ry="18"/>
<text text-anchor="start" x="748" y="-102.855" font-family="Times,serif" font-style="italic" font-size="14.00">q</text>
<text text-anchor="start" x="755" y="-102.855" font-family="Times,serif" font-style="italic" baseline-shift="sub" font-size="14.00">5</text>
</g>
<!-- q3&#45;&gt;q5 -->
<g id="edge8" class="edge"><title>q3&#45;&gt;q5</title>
<path fill="none" stroke="black" d="M619.923,-51.5815C646.768,-62.3883 691.905,-80.5585 722.308,-92.7972"/>
<polygon fill="black" stroke="black" points="721.035,-96.0579 731.619,-96.5455 723.649,-89.5643 721.035,-96.0579"/>
<text text-anchor="start" x="665" y="-90.3552" font-family="Times,serif" font-size="14.00">), ( → ε</text>
</g>
<!-- q6 -->
<g id="node7" class="node"><title>q6</title>
<ellipse fill="none" stroke="black" cx="898" cy="-105.555" rx="27" ry="18"/>
<ellipse fill="none" stroke="black" cx="898" cy="-105.555" rx="31" ry="22"/>
<text text-anchor="start" x="891" y="-102.855" font-family="Times,serif" font-style="italic" font-size="14.00">q</text>
<text text-anchor="start" x="898" y="-102.855" font-family="Times,serif" font-style="italic" baseline-shift="sub" font-size="14.00">6</text>
</g>
<!-- q3&#45;&gt;q6 -->
<g id="edge14" class="edge"><title>q3&#45;&gt;q6</title>
<path fill="none" stroke="black" d="M623.5,-43.5761C659.525,-45.4274 726.464,-50.4492 782,-63.5552 809.391,-70.0191 839.211,-81.0319 861.621,-90.159"/>
<polygon fill="black" stroke="black" points="860.473,-93.4717 871.051,-94.0662 863.152,-87.0049 860.473,-93.4717"/>
<text text-anchor="start" x="730.5" y="-67.3552" font-family="Times,serif" font-size="14.00">$, $ → ε</text>
</g>
<!-- q4&#45;&gt;q2 -->
<g id="edge12" class="edge"><title>q4&#45;&gt;q2</title>
<path fill="none" stroke="black" d="M574.145,-176.115C561.125,-170.234 543.968,-163.331 528,-159.555 429.906,-136.36 401.439,-157.055 302,-140.555 298.738,-140.014 295.361,-139.354 291.996,-138.629"/>
<polygon fill="black" stroke="black" points="292.594,-135.175 282.061,-136.313 291.005,-141.992 292.594,-135.175"/>
<text text-anchor="start" x="364.5" y="-163.355" font-family="Times,serif" font-size="14.00">{+, &#45;, *, /}, ε → ε</text>
</g>
<!-- q4&#45;&gt;q4 -->
<g id="edge7" class="edge"><title>q4&#45;&gt;q4</title>
<path fill="none" stroke="black" d="M581.273,-201.722C576.659,-212.219 581.734,-222.555 596.5,-222.555 606.421,-222.555 611.967,-217.889 613.139,-211.644"/>
<polygon fill="black" stroke="black" points="616.601,-211.129 611.727,-201.722 609.671,-212.115 616.601,-211.129"/>
<text text-anchor="start" x="444" y="-226.355" font-family="Times,serif" font-size="14.00">{a, b, c, …, z, A, B, C, …, Z, _, 0, 1, 2, …, 9}, ε → ε</text>
</g>
<!-- q4&#45;&gt;q5 -->
<g id="edge9" class="edge"><title>q4&#45;&gt;q5</title>
<path fill="none" stroke="black" d="M621.247,-179.053C644.666,-171.154 681.053,-157.518 710,-140.555 716.832,-136.552 723.752,-131.571 730.019,-126.634"/>
<polygon fill="black" stroke="black" points="732.57,-129.069 738.09,-120.025 728.136,-123.653 732.57,-129.069"/>
<text text-anchor="start" x="665" y="-165.355" font-family="Times,serif" font-size="14.00">), ( → ε</text>
</g>
<!-- q4&#45;&gt;q6 -->
<g id="edge15" class="edge"><title>q4&#45;&gt;q6</title>
<path fill="none" stroke="black" d="M623.633,-187.069C660.099,-187.015 727.861,-184.085 782,-165.555 811.587,-155.429 842.914,-138.633 865.387,-125.384"/>
<polygon fill="black" stroke="black" points="867.366,-128.279 874.144,-120.136 863.768,-122.274 867.366,-128.279"/>
<text text-anchor="start" x="730.5" y="-181.355" font-family="Times,serif" font-size="14.00">$, $ → ε</text>
</g>
<!-- q5&#45;&gt;q2 -->
<g id="edge13" class="edge"><title>q5&#45;&gt;q2</title>
<path fill="none" stroke="black" d="M727.99,-106.814C645.414,-110.809 389.045,-123.214 293.964,-127.815"/>
<polygon fill="black" stroke="black" points="293.788,-124.319 283.969,-128.299 294.126,-131.311 293.788,-124.319"/>
<text text-anchor="start" x="546" y="-119.355" font-family="Times,serif" font-size="14.00">{+, &#45;, *, /}, ε → ε</text>
</g>
<!-- q5&#45;&gt;q5 -->
<g id="edge10" class="edge"><title>q5&#45;&gt;q5</title>
<path fill="none" stroke="black" d="M743.498,-121.845C740.725,-131.944 744.559,-141.555 755,-141.555 761.689,-141.555 765.666,-137.611 766.932,-132.121"/>
<polygon fill="black" stroke="black" points="770.417,-131.69 766.502,-121.845 763.423,-131.983 770.417,-131.69"/>
<text text-anchor="start" x="732.5" y="-145.355" font-family="Times,serif" font-size="14.00">), ( → ε</text>
</g>
<!-- q5&#45;&gt;q6 -->
<g id="edge16" class="edge"><title>q5&#45;&gt;q6</title>
<path fill="none" stroke="black" d="M782.191,-105.555C803.072,-105.555 832.676,-105.555 856.592,-105.555"/>
<polygon fill="black" stroke="black" points="856.789,-109.055 866.789,-105.555 856.789,-102.055 856.789,-109.055"/>
<text text-anchor="start" x="800" y="-109.355" font-family="Times,serif" font-size="14.00">$, $ → ε</text>
</g>
</g>
</svg>
