<?xml version="1.0" encoding="UTF-8" standalone="no"?>
<!DOCTYPE svg PUBLIC "-//W3C//DTD SVG 1.1//EN"
 "http://www.w3.org/Graphics/SVG/1.1/DTD/svg11.dtd">
<!-- Generated by graphviz version 2.38.0 (20140413.2041)
 -->
<!-- Title: g Pages: 1 -->
<svg width="1748pt" height="598pt"
 viewBox="0.00 0.00 1748.24 598.00" xmlns="http://www.w3.org/2000/svg" xmlns:xlink="http://www.w3.org/1999/xlink">
<g id="graph0" class="graph" transform="scale(1 1) rotate(0) translate(4 594)">
<title>g</title>
<polygon fill="white" stroke="none" points="-4,4 -4,-594 1744.24,-594 1744.24,4 -4,4"/>
<!-- S -->
<g id="node1" class="node"><title>S</title>
<ellipse fill="none" stroke="none" cx="27" cy="-150" rx="27" ry="18"/>
</g>
<!-- q1 -->
<g id="node2" class="node"><title>q1</title>
<ellipse fill="none" stroke="black" cx="118" cy="-150" rx="27" ry="18"/>
<text text-anchor="start" x="111" y="-147.3" font-family="Times,serif" font-style="italic" font-size="14.00">q</text>
<text text-anchor="start" x="118" y="-147.3" font-family="Times,serif" font-style="italic" baseline-shift="sub" font-size="14.00">1</text>
</g>
<!-- S&#45;&gt;q1 -->
<g id="edge1" class="edge"><title>S&#45;&gt;q1</title>
<path fill="none" stroke="black" d="M54.2216,-150C62.5505,-150 71.9135,-150 80.8161,-150"/>
<polygon fill="black" stroke="black" points="80.9659,-153.5 90.9659,-150 80.9658,-146.5 80.9659,-153.5"/>
</g>
<!-- q2 -->
<g id="node3" class="node"><title>q2</title>
<ellipse fill="none" stroke="black" cx="218" cy="-150" rx="27" ry="18"/>
<text text-anchor="start" x="211" y="-147.3" font-family="Times,serif" font-style="italic" font-size="14.00">q</text>
<text text-anchor="start" x="218" y="-147.3" font-family="Times,serif" font-style="italic" baseline-shift="sub" font-size="14.00">2</text>
</g>
<!-- q1&#45;&gt;q2 -->
<g id="edge2" class="edge"><title>q1&#45;&gt;q2</title>
<path fill="none" stroke="black" d="M145.005,-150C155.969,-150 168.92,-150 180.794,-150"/>
<polygon fill="black" stroke="black" points="180.874,-153.5 190.874,-150 180.874,-146.5 180.874,-153.5"/>
<text text-anchor="middle" x="168" y="-153.8" font-family="Times,serif" font-size="14.00">w</text>
</g>
<!-- q5 -->
<g id="node6" class="node"><title>q5</title>
<ellipse fill="none" stroke="black" cx="948" cy="-170" rx="27" ry="18"/>
<text text-anchor="start" x="941" y="-167.3" font-family="Times,serif" font-style="italic" font-size="14.00">q</text>
<text text-anchor="start" x="948" y="-167.3" font-family="Times,serif" font-style="italic" baseline-shift="sub" font-size="14.00">5</text>
</g>
<!-- q1&#45;&gt;q5 -->
<g id="edge5" class="edge"><title>q1&#45;&gt;q5</title>
<path fill="none" stroke="black" d="M122.027,-131.906C129.843,-92.0111 154.631,-0 217,-0 217,-0 217,-0 846,-0 911.109,-0 935.18,-93.3047 943.284,-141.665"/>
<polygon fill="black" stroke="black" points="939.866,-142.463 944.86,-151.807 946.783,-141.388 939.866,-142.463"/>
<text text-anchor="start" x="501" y="-4.8" font-family="Times,serif" font-size="14.00">Γ</text>
<text text-anchor="start" x="510" y="-4.8" font-family="Times,serif" baseline-shift="sub" font-size="14.00">&#45;w</text>
</g>
<!-- q13 -->
<g id="node17" class="node"><title>q13</title>
<ellipse fill="none" stroke="black" cx="1688.62" cy="-317" rx="51.7379" ry="25.4118"/>
<text text-anchor="start" x="1678.62" y="-320.8" font-family="Times,serif" font-style="italic" font-size="14.00">q</text>
<text text-anchor="start" x="1685.62" y="-320.8" font-family="Times,serif" font-style="italic" baseline-shift="sub" font-size="14.00">13</text>
<text text-anchor="start" x="1660.12" y="-306.8" font-family="Times,serif" font-size="14.00">Trap State</text>
</g>
<!-- q1&#45;&gt;q13 -->
<g id="edge33" class="edge"><title>q1&#45;&gt;q13</title>
<path fill="none" stroke="black" d="M119.23,-167.99C120.741,-248.883 132.098,-575 217,-575 217,-575 217,-575 1562,-575 1659.62,-575 1681.39,-423.856 1686.24,-352.937"/>
<polygon fill="black" stroke="black" points="1689.75,-352.874 1686.86,-342.681 1682.76,-352.452 1689.75,-352.874"/>
<text text-anchor="middle" x="898.5" y="-578.8" font-family="Times,serif" font-size="14.00">.</text>
</g>
<!-- q3 -->
<g id="node4" class="node"><title>q3</title>
<ellipse fill="none" stroke="black" cx="318" cy="-150" rx="27" ry="18"/>
<text text-anchor="start" x="311" y="-147.3" font-family="Times,serif" font-style="italic" font-size="14.00">q</text>
<text text-anchor="start" x="318" y="-147.3" font-family="Times,serif" font-style="italic" baseline-shift="sub" font-size="14.00">3</text>
</g>
<!-- q2&#45;&gt;q3 -->
<g id="edge3" class="edge"><title>q2&#45;&gt;q3</title>
<path fill="none" stroke="black" d="M245.005,-150C255.969,-150 268.92,-150 280.794,-150"/>
<polygon fill="black" stroke="black" points="280.874,-153.5 290.874,-150 280.874,-146.5 280.874,-153.5"/>
<text text-anchor="middle" x="268" y="-153.8" font-family="Times,serif" font-size="14.00">w</text>
</g>
<!-- q2&#45;&gt;q5 -->
<g id="edge7" class="edge"><title>q2&#45;&gt;q5</title>
<path fill="none" stroke="black" d="M225.639,-132.331C238.339,-101.94 269.138,-43 317,-43 317,-43 317,-43 846,-43 896.47,-43 925.765,-105.2 938.805,-142.541"/>
<polygon fill="black" stroke="black" points="935.585,-143.952 942.056,-152.341 942.229,-141.748 935.585,-143.952"/>
<text text-anchor="start" x="557" y="-47.8" font-family="Times,serif" font-size="14.00">Γ</text>
<text text-anchor="start" x="566" y="-47.8" font-family="Times,serif" baseline-shift="sub" font-size="14.00">&#45;w</text>
</g>
<!-- q7 -->
<g id="node8" class="node"><title>q7</title>
<ellipse fill="none" stroke="black" cx="1042" cy="-356" rx="27" ry="18"/>
<text text-anchor="start" x="1035" y="-353.3" font-family="Times,serif" font-style="italic" font-size="14.00">q</text>
<text text-anchor="start" x="1042" y="-353.3" font-family="Times,serif" font-style="italic" baseline-shift="sub" font-size="14.00">7</text>
</g>
<!-- q2&#45;&gt;q7 -->
<g id="edge12" class="edge"><title>q2&#45;&gt;q7</title>
<path fill="none" stroke="black" d="M219.694,-168.168C223.075,-244.083 240.916,-532 317,-532 317,-532 317,-532 949,-532 1014.85,-532 1033.65,-434.043 1038.95,-384.288"/>
<polygon fill="black" stroke="black" points="1042.45,-384.459 1039.92,-374.172 1035.48,-383.796 1042.45,-384.459"/>
<text text-anchor="middle" x="624" y="-535.8" font-family="Times,serif" font-size="14.00">.</text>
</g>
<!-- q4 -->
<g id="node5" class="node"><title>q4</title>
<ellipse fill="none" stroke="black" cx="418" cy="-150" rx="27" ry="18"/>
<text text-anchor="start" x="411" y="-147.3" font-family="Times,serif" font-style="italic" font-size="14.00">q</text>
<text text-anchor="start" x="418" y="-147.3" font-family="Times,serif" font-style="italic" baseline-shift="sub" font-size="14.00">4</text>
</g>
<!-- q3&#45;&gt;q4 -->
<g id="edge4" class="edge"><title>q3&#45;&gt;q4</title>
<path fill="none" stroke="black" d="M345.005,-150C355.969,-150 368.92,-150 380.794,-150"/>
<polygon fill="black" stroke="black" points="380.874,-153.5 390.874,-150 380.874,-146.5 380.874,-153.5"/>
<text text-anchor="middle" x="368" y="-153.8" font-family="Times,serif" font-size="14.00">w</text>
</g>
<!-- q3&#45;&gt;q5 -->
<g id="edge8" class="edge"><title>q3&#45;&gt;q5</title>
<path fill="none" stroke="black" d="M332.596,-134.607C350.14,-116.536 382.53,-89 417,-89 417,-89 417,-89 846,-89 882.434,-89 913.222,-121.474 930.907,-145.299"/>
<polygon fill="black" stroke="black" points="928.168,-147.487 936.816,-153.608 933.873,-143.43 928.168,-147.487"/>
<text text-anchor="start" x="613" y="-93.8" font-family="Times,serif" font-size="14.00">Γ</text>
<text text-anchor="start" x="622" y="-93.8" font-family="Times,serif" baseline-shift="sub" font-size="14.00">&#45;w</text>
</g>
<!-- q3&#45;&gt;q7 -->
<g id="edge13" class="edge"><title>q3&#45;&gt;q7</title>
<path fill="none" stroke="black" d="M320.964,-168.193C328.446,-232.893 357.773,-448 417,-448 417,-448 417,-448 949,-448 986.381,-448 1013.88,-409.555 1028.65,-382.369"/>
<polygon fill="black" stroke="black" points="1031.85,-383.795 1033.34,-373.304 1025.63,-380.578 1031.85,-383.795"/>
<text text-anchor="middle" x="673.5" y="-451.8" font-family="Times,serif" font-size="14.00">.</text>
</g>
<!-- q4&#45;&gt;q5 -->
<g id="edge9" class="edge"><title>q4&#45;&gt;q5</title>
<path fill="none" stroke="black" d="M445.184,-150.992C532.016,-154.281 810.65,-164.835 910.757,-168.627"/>
<polygon fill="black" stroke="black" points="910.845,-172.133 920.97,-169.014 911.11,-165.138 910.845,-172.133"/>
<text text-anchor="middle" x="673.5" y="-162.8" font-family="Times,serif" font-size="14.00">Γ</text>
</g>
<!-- q6 -->
<g id="node7" class="node"><title>q6</title>
<ellipse fill="none" stroke="black" cx="512" cy="-221" rx="27" ry="18"/>
<text text-anchor="start" x="505" y="-218.3" font-family="Times,serif" font-style="italic" font-size="14.00">q</text>
<text text-anchor="start" x="512" y="-218.3" font-family="Times,serif" font-style="italic" baseline-shift="sub" font-size="14.00">6</text>
</g>
<!-- q4&#45;&gt;q6 -->
<g id="edge10" class="edge"><title>q4&#45;&gt;q6</title>
<path fill="none" stroke="black" d="M436.304,-163.355C450.183,-174.065 469.863,-189.253 485.539,-201.35"/>
<polygon fill="black" stroke="black" points="483.718,-204.367 493.773,-207.705 487.995,-198.825 483.718,-204.367"/>
<text text-anchor="middle" x="465" y="-188.8" font-family="Times,serif" font-size="14.00">.</text>
</g>
<!-- q5&#45;&gt;q5 -->
<g id="edge6" class="edge"><title>q5&#45;&gt;q5</title>
<path fill="none" stroke="black" d="M939.788,-187.41C938.255,-197.088 940.992,-206 948,-206 952.38,-206 955.092,-202.519 956.135,-197.545"/>
<polygon fill="black" stroke="black" points="959.636,-197.436 956.212,-187.41 952.636,-197.383 959.636,-197.436"/>
<text text-anchor="middle" x="948" y="-209.8" font-family="Times,serif" font-size="14.00">Γ</text>
</g>
<!-- q5&#45;&gt;q7 -->
<g id="edge14" class="edge"><title>q5&#45;&gt;q7</title>
<path fill="none" stroke="black" d="M962.15,-185.451C972.629,-198.331 987.129,-217.5 997,-236 1013.09,-266.149 1025.74,-303.45 1033.27,-328.389"/>
<polygon fill="black" stroke="black" points="1030,-329.659 1036.18,-338.263 1036.71,-327.681 1030,-329.659"/>
<text text-anchor="middle" x="995" y="-239.8" font-family="Times,serif" font-size="14.00">.</text>
</g>
<!-- q6&#45;&gt;q5 -->
<g id="edge11" class="edge"><title>q6&#45;&gt;q5</title>
<path fill="none" stroke="black" d="M538.849,-217.962C612.949,-209.255 826.238,-184.191 911.328,-174.192"/>
<polygon fill="black" stroke="black" points="911.763,-177.665 921.286,-173.022 910.946,-170.713 911.763,-177.665"/>
<text text-anchor="start" x="713.5" y="-203.8" font-family="Times,serif" font-size="14.00">Γ</text>
<text text-anchor="start" x="722.5" y="-203.8" font-family="Times,serif" baseline-shift="sub" font-size="14.00">&#45;c</text>
</g>
<!-- q14 -->
<g id="node14" class="node"><title>q14</title>
<ellipse fill="none" stroke="black" cx="624" cy="-254" rx="27" ry="18"/>
<text text-anchor="start" x="614" y="-251.3" font-family="Times,serif" font-style="italic" font-size="14.00">q</text>
<text text-anchor="start" x="621" y="-251.3" font-family="Times,serif" font-style="italic" baseline-shift="sub" font-size="14.00">14</text>
</g>
<!-- q6&#45;&gt;q14 -->
<g id="edge22" class="edge"><title>q6&#45;&gt;q14</title>
<path fill="none" stroke="black" d="M536.868,-228.161C552.148,-232.744 572.207,-238.762 589.123,-243.837"/>
<polygon fill="black" stroke="black" points="588.594,-247.332 599.178,-246.853 590.606,-240.628 588.594,-247.332"/>
<text text-anchor="middle" x="568" y="-243.8" font-family="Times,serif" font-size="14.00">c</text>
</g>
<!-- q6&#45;&gt;q13 -->
<g id="edge34" class="edge"><title>q6&#45;&gt;q13</title>
<path fill="none" stroke="black" d="M512.32,-239.215C511.108,-299.086 515.902,-486 623,-486 623,-486 623,-486 1562,-486 1628.18,-486 1663.58,-401.492 1678.64,-351.994"/>
<polygon fill="black" stroke="black" points="1682.02,-352.881 1681.46,-342.301 1675.3,-350.922 1682.02,-352.881"/>
<text text-anchor="middle" x="1090.5" y="-489.8" font-family="Times,serif" font-size="14.00">.</text>
</g>
<!-- q8 -->
<g id="node9" class="node"><title>q8</title>
<ellipse fill="none" stroke="black" cx="1139" cy="-354" rx="27" ry="18"/>
<text text-anchor="start" x="1132" y="-351.3" font-family="Times,serif" font-style="italic" font-size="14.00">q</text>
<text text-anchor="start" x="1139" y="-351.3" font-family="Times,serif" font-style="italic" baseline-shift="sub" font-size="14.00">8</text>
</g>
<!-- q7&#45;&gt;q8 -->
<g id="edge15" class="edge"><title>q7&#45;&gt;q8</title>
<path fill="none" stroke="black" d="M1069.21,-355.448C1079.28,-355.236 1090.96,-354.99 1101.81,-354.762"/>
<polygon fill="black" stroke="black" points="1101.95,-358.26 1111.87,-354.55 1101.8,-351.261 1101.95,-358.26"/>
<text text-anchor="middle" x="1090.5" y="-358.8" font-family="Times,serif" font-size="14.00">c</text>
</g>
<!-- q7&#45;&gt;q13 -->
<g id="edge35" class="edge"><title>q7&#45;&gt;q13</title>
<path fill="none" stroke="black" d="M1043.79,-337.974C1046.91,-290.919 1062.3,-168 1138,-168 1138,-168 1138,-168 1562,-168 1621.45,-168 1658.47,-238.195 1675.84,-282.225"/>
<polygon fill="black" stroke="black" points="1672.63,-283.617 1679.45,-291.724 1679.17,-281.133 1672.63,-283.617"/>
<text text-anchor="start" x="1320.5" y="-172.8" font-family="Times,serif" font-size="14.00">Σ</text>
<text text-anchor="start" x="1329.5" y="-172.8" font-family="Times,serif" baseline-shift="sub" font-size="14.00">&#45;c</text>
</g>
<!-- q9 -->
<g id="node10" class="node"><title>q9</title>
<ellipse fill="none" stroke="black" cx="1236" cy="-354" rx="27" ry="18"/>
<text text-anchor="start" x="1229" y="-351.3" font-family="Times,serif" font-style="italic" font-size="14.00">q</text>
<text text-anchor="start" x="1236" y="-351.3" font-family="Times,serif" font-style="italic" baseline-shift="sub" font-size="14.00">9</text>
</g>
<!-- q8&#45;&gt;q9 -->
<g id="edge16" class="edge"><title>q8&#45;&gt;q9</title>
<path fill="none" stroke="black" d="M1166.21,-354C1176.28,-354 1187.96,-354 1198.81,-354"/>
<polygon fill="black" stroke="black" points="1198.87,-357.5 1208.87,-354 1198.87,-350.5 1198.87,-357.5"/>
<text text-anchor="middle" x="1187.5" y="-357.8" font-family="Times,serif" font-size="14.00">o</text>
</g>
<!-- q10 -->
<g id="node11" class="node"><title>q10</title>
<ellipse fill="none" stroke="black" cx="1561" cy="-350" rx="27" ry="18"/>
<ellipse fill="none" stroke="black" cx="1561" cy="-350" rx="31" ry="22"/>
<text text-anchor="start" x="1551" y="-347.3" font-family="Times,serif" font-style="italic" font-size="14.00">q</text>
<text text-anchor="start" x="1558" y="-347.3" font-family="Times,serif" font-style="italic" baseline-shift="sub" font-size="14.00">10</text>
</g>
<!-- q8&#45;&gt;q10 -->
<g id="edge21" class="edge"><title>q8&#45;&gt;q10</title>
<path fill="none" stroke="black" d="M1148.45,-371.16C1162.53,-397.022 1193.42,-443 1235,-443 1235,-443 1235,-443 1449,-443 1489.61,-443 1523.16,-405.979 1542.4,-378.652"/>
<polygon fill="black" stroke="black" points="1545.42,-380.423 1548.13,-370.18 1539.63,-376.5 1545.42,-380.423"/>
<text text-anchor="middle" x="1330" y="-446.8" font-family="Times,serif" font-size="14.00">a</text>
</g>
<!-- q8&#45;&gt;q13 -->
<g id="edge37" class="edge"><title>q8&#45;&gt;q13</title>
<path fill="none" stroke="black" d="M1143.15,-336.178C1151.06,-297.844 1175.54,-211 1235,-211 1235,-211 1235,-211 1562,-211 1607.91,-211 1645.72,-252.86 1667.49,-283.969"/>
<polygon fill="black" stroke="black" points="1664.7,-286.089 1673.2,-292.415 1670.5,-282.17 1664.7,-286.089"/>
<text text-anchor="start" x="1375" y="-215.8" font-family="Times,serif" font-size="14.00">Σ</text>
<text text-anchor="start" x="1384" y="-215.8" font-family="Times,serif" baseline-shift="sub" font-size="14.00">&#45;a,o</text>
</g>
<!-- q9&#45;&gt;q10 -->
<g id="edge17" class="edge"><title>q9&#45;&gt;q10</title>
<path fill="none" stroke="black" d="M1263.16,-353.676C1319.47,-352.979 1452.5,-351.331 1519.68,-350.499"/>
<polygon fill="black" stroke="black" points="1519.92,-353.997 1529.88,-350.373 1519.83,-346.997 1519.92,-353.997"/>
<text text-anchor="middle" x="1389" y="-355.8" font-family="Times,serif" font-size="14.00">m</text>
</g>
<!-- q11 -->
<g id="node12" class="node"><title>q11</title>
<ellipse fill="none" stroke="black" cx="1330" cy="-302" rx="27" ry="18"/>
<text text-anchor="start" x="1320" y="-299.3" font-family="Times,serif" font-style="italic" font-size="14.00">q</text>
<text text-anchor="start" x="1327" y="-299.3" font-family="Times,serif" font-style="italic" baseline-shift="sub" font-size="14.00">11</text>
</g>
<!-- q9&#45;&gt;q11 -->
<g id="edge18" class="edge"><title>q9&#45;&gt;q11</title>
<path fill="none" stroke="black" d="M1255.49,-341.007C1263.23,-335.786 1272.4,-329.865 1281,-325 1286.36,-321.969 1292.18,-318.958 1297.86,-316.161"/>
<polygon fill="black" stroke="black" points="1299.67,-319.173 1307.18,-311.692 1296.65,-312.861 1299.67,-319.173"/>
<text text-anchor="middle" x="1283" y="-328.8" font-family="Times,serif" font-size="14.00">.</text>
</g>
<!-- q9&#45;&gt;q13 -->
<g id="edge38" class="edge"><title>q9&#45;&gt;q13</title>
<path fill="none" stroke="black" d="M1260.91,-361.682C1319.07,-379.124 1471.94,-417.471 1592,-381 1615,-374.014 1637.5,-359.459 1654.89,-345.992"/>
<polygon fill="black" stroke="black" points="1657.37,-348.486 1663,-339.506 1653,-343.02 1657.37,-348.486"/>
<text text-anchor="start" x="1437" y="-400.8" font-family="Times,serif" font-size="14.00">Γ</text>
<text text-anchor="start" x="1446" y="-400.8" font-family="Times,serif" baseline-shift="sub" font-size="14.00">&#45;m</text>
</g>
<!-- q10&#45;&gt;q13 -->
<g id="edge32" class="edge"><title>q10&#45;&gt;q13</title>
<path fill="none" stroke="black" d="M1590.19,-342.594C1602.77,-339.29 1618.04,-335.278 1632.72,-331.421"/>
<polygon fill="black" stroke="black" points="1633.97,-334.711 1642.76,-328.785 1632.2,-327.941 1633.97,-334.711"/>
<text text-anchor="middle" x="1614.5" y="-339.8" font-family="Times,serif" font-size="14.00">Σ</text>
</g>
<!-- q12 -->
<g id="node13" class="node"><title>q12</title>
<ellipse fill="none" stroke="black" cx="1448" cy="-302" rx="27" ry="18"/>
<text text-anchor="start" x="1438" y="-299.3" font-family="Times,serif" font-style="italic" font-size="14.00">q</text>
<text text-anchor="start" x="1445" y="-299.3" font-family="Times,serif" font-style="italic" baseline-shift="sub" font-size="14.00">12</text>
</g>
<!-- q11&#45;&gt;q12 -->
<g id="edge19" class="edge"><title>q11&#45;&gt;q12</title>
<path fill="none" stroke="black" d="M1357.03,-302C1372.74,-302 1393,-302 1410.32,-302"/>
<polygon fill="black" stroke="black" points="1410.65,-305.5 1420.65,-302 1410.65,-298.5 1410.65,-305.5"/>
<text text-anchor="middle" x="1389" y="-305.8" font-family="Times,serif" font-size="14.00">c</text>
</g>
<!-- q11&#45;&gt;q13 -->
<g id="edge36" class="edge"><title>q11&#45;&gt;q13</title>
<path fill="none" stroke="black" d="M1353.89,-293.111C1371.83,-286.641 1397.6,-278.435 1421,-275 1495.85,-264.014 1582.34,-283.59 1636.01,-299.549"/>
<polygon fill="black" stroke="black" points="1635.05,-302.917 1645.64,-302.479 1637.09,-296.22 1635.05,-302.917"/>
<text text-anchor="start" x="1493" y="-278.8" font-family="Times,serif" font-size="14.00">Σ</text>
<text text-anchor="start" x="1502" y="-278.8" font-family="Times,serif" baseline-shift="sub" font-size="14.00">&#45;c</text>
</g>
<!-- q12&#45;&gt;q10 -->
<g id="edge20" class="edge"><title>q12&#45;&gt;q10</title>
<path fill="none" stroke="black" d="M1471.9,-310.65C1483.92,-315.3 1498.85,-321.247 1512,-327 1516.52,-328.979 1521.25,-331.134 1525.9,-333.305"/>
<polygon fill="black" stroke="black" points="1524.7,-336.611 1535.24,-337.733 1527.7,-330.286 1524.7,-336.611"/>
<text text-anchor="middle" x="1502.5" y="-330.8" font-family="Times,serif" font-size="14.00">a</text>
</g>
<!-- q12&#45;&gt;q13 -->
<g id="edge39" class="edge"><title>q12&#45;&gt;q13</title>
<path fill="none" stroke="black" d="M1475.14,-301.418C1503.84,-300.999 1551.27,-300.958 1592,-304 1604.01,-304.897 1616.81,-306.315 1629.01,-307.891"/>
<polygon fill="black" stroke="black" points="1628.72,-311.382 1639.1,-309.244 1629.65,-304.445 1628.72,-311.382"/>
<text text-anchor="start" x="1551.5" y="-308.8" font-family="Times,serif" font-size="14.00">Σ</text>
<text text-anchor="start" x="1560.5" y="-308.8" font-family="Times,serif" baseline-shift="sub" font-size="14.00">&#45;a</text>
</g>
<!-- q14&#45;&gt;q5 -->
<g id="edge27" class="edge"><title>q14&#45;&gt;q5</title>
<path fill="none" stroke="black" d="M648.653,-246.124C655.214,-244.035 662.359,-241.849 669,-240 772.02,-211.325 799.98,-212.675 903,-184 906.425,-183.047 909.983,-182.004 913.526,-180.931"/>
<polygon fill="black" stroke="black" points="914.837,-184.188 923.347,-177.876 912.758,-177.504 914.837,-184.188"/>
<text text-anchor="start" x="768" y="-219.8" font-family="Times,serif" font-size="14.00">Γ</text>
<text text-anchor="start" x="777" y="-219.8" font-family="Times,serif" baseline-shift="sub" font-size="14.00">&#45;a,o</text>
</g>
<!-- q14&#45;&gt;q7 -->
<g id="edge28" class="edge"><title>q14&#45;&gt;q7</title>
<path fill="none" stroke="black" d="M650.204,-249.544C696.148,-242.39 796.148,-231.311 876,-254 931.669,-269.818 986.949,-310.36 1017.28,-335.307"/>
<polygon fill="black" stroke="black" points="1015.24,-338.161 1025.15,-341.896 1019.73,-332.793 1015.24,-338.161"/>
<text text-anchor="middle" x="845" y="-257.8" font-family="Times,serif" font-size="14.00">.</text>
</g>
<!-- q15 -->
<g id="node15" class="node"><title>q15</title>
<ellipse fill="none" stroke="black" cx="723" cy="-331" rx="27" ry="18"/>
<text text-anchor="start" x="713" y="-328.3" font-family="Times,serif" font-style="italic" font-size="14.00">q</text>
<text text-anchor="start" x="720" y="-328.3" font-family="Times,serif" font-style="italic" baseline-shift="sub" font-size="14.00">15</text>
</g>
<!-- q14&#45;&gt;q15 -->
<g id="edge23" class="edge"><title>q14&#45;&gt;q15</title>
<path fill="none" stroke="black" d="M642.342,-267.766C657.515,-279.811 679.743,-297.456 696.866,-311.048"/>
<polygon fill="black" stroke="black" points="694.8,-313.877 704.808,-317.353 699.152,-308.394 694.8,-313.877"/>
<text text-anchor="middle" x="673.5" y="-297.8" font-family="Times,serif" font-size="14.00">o</text>
</g>
<!-- q16 -->
<g id="node16" class="node"><title>q16</title>
<ellipse fill="none" stroke="black" cx="845" cy="-360" rx="27" ry="18"/>
<ellipse fill="none" stroke="black" cx="845" cy="-360" rx="31" ry="22"/>
<text text-anchor="start" x="835" y="-357.3" font-family="Times,serif" font-style="italic" font-size="14.00">q</text>
<text text-anchor="start" x="842" y="-357.3" font-family="Times,serif" font-style="italic" baseline-shift="sub" font-size="14.00">16</text>
</g>
<!-- q14&#45;&gt;q16 -->
<g id="edge26" class="edge"><title>q14&#45;&gt;q16</title>
<path fill="none" stroke="black" d="M631.507,-271.434C641.434,-295.365 662.785,-337.724 696,-358 728.81,-378.029 773.81,-375.333 805.551,-369.632"/>
<polygon fill="black" stroke="black" points="806.639,-372.985 815.771,-367.612 805.282,-366.118 806.639,-372.985"/>
<text text-anchor="middle" x="723" y="-376.8" font-family="Times,serif" font-size="14.00">a</text>
</g>
<!-- q15&#45;&gt;q5 -->
<g id="edge29" class="edge"><title>q15&#45;&gt;q5</title>
<path fill="none" stroke="black" d="M749.177,-326.244C781.346,-319.153 837.465,-303.273 876,-273 902.152,-252.455 922.421,-219.637 934.488,-196.578"/>
<polygon fill="black" stroke="black" points="937.761,-197.861 939.15,-187.358 931.514,-194.702 937.761,-197.861"/>
<text text-anchor="start" x="834" y="-310.8" font-family="Times,serif" font-size="14.00">Γ</text>
<text text-anchor="start" x="843" y="-310.8" font-family="Times,serif" baseline-shift="sub" font-size="14.00">&#45;m</text>
</g>
<!-- q15&#45;&gt;q7 -->
<g id="edge25" class="edge"><title>q15&#45;&gt;q7</title>
<path fill="none" stroke="black" d="M740.201,-345.003C748.298,-351.708 758.397,-359.641 768,-366 787.401,-378.847 791.448,-385.268 814,-391 882.481,-408.407 964.917,-384.947 1009.18,-368.856"/>
<polygon fill="black" stroke="black" points="1010.67,-372.036 1018.8,-365.252 1008.21,-365.481 1010.67,-372.036"/>
<text text-anchor="middle" x="898.5" y="-398.8" font-family="Times,serif" font-size="14.00">.</text>
</g>
<!-- q15&#45;&gt;q16 -->
<g id="edge24" class="edge"><title>q15&#45;&gt;q16</title>
<path fill="none" stroke="black" d="M748.573,-336.939C764.889,-340.881 786.649,-346.14 805.269,-350.64"/>
<polygon fill="black" stroke="black" points="804.694,-354.102 815.237,-353.049 806.339,-347.298 804.694,-354.102"/>
<text text-anchor="middle" x="782" y="-351.8" font-family="Times,serif" font-size="14.00">m</text>
</g>
<!-- q16&#45;&gt;q5 -->
<g id="edge30" class="edge"><title>q16&#45;&gt;q5</title>
<path fill="none" stroke="black" d="M862.863,-341.658C867.437,-336.198 872.177,-330.053 876,-324 902.53,-281.999 924.933,-228.46 937.123,-196.841"/>
<polygon fill="black" stroke="black" points="940.435,-197.979 940.714,-187.388 933.891,-195.493 940.435,-197.979"/>
<text text-anchor="middle" x="898.5" y="-294.8" font-family="Times,serif" font-size="14.00">Γ</text>
</g>
<!-- q16&#45;&gt;q7 -->
<g id="edge31" class="edge"><title>q16&#45;&gt;q7</title>
<path fill="none" stroke="black" d="M876.041,-359.384C910.657,-358.674 967.525,-357.507 1004.62,-356.746"/>
<polygon fill="black" stroke="black" points="1005.06,-360.238 1014.98,-356.534 1004.91,-353.24 1005.06,-360.238"/>
<text text-anchor="middle" x="948" y="-361.8" font-family="Times,serif" font-size="14.00">.</text>
</g>
<!-- q13&#45;&gt;q13 -->
<g id="edge40" class="edge"><title>q13&#45;&gt;q13</title>
<path fill="none" stroke="black" d="M1674.87,-341.57C1673.92,-351.792 1678.5,-360.456 1688.62,-360.456 1695.1,-360.456 1699.31,-356.9 1701.25,-351.657"/>
<polygon fill="black" stroke="black" points="1704.75,-351.896 1702.37,-341.57 1697.79,-351.123 1704.75,-351.896"/>
<text text-anchor="middle" x="1688.62" y="-364.256" font-family="Times,serif" font-size="14.00">Σ</text>
</g>
</g>
</svg>
