<?xml version="1.0" encoding="UTF-8" standalone="no"?>
<!DOCTYPE svg PUBLIC "-//W3C//DTD SVG 1.1//EN"
 "http://www.w3.org/Graphics/SVG/1.1/DTD/svg11.dtd">
<!-- Generated by graphviz version 2.38.0 (20140413.2041)
 -->
<!-- Title: g Pages: 1 -->
<svg width="1720pt" height="541pt"
 viewBox="0.00 0.00 1720.24 541.00" xmlns="http://www.w3.org/2000/svg" xmlns:xlink="http://www.w3.org/1999/xlink">
<g id="graph0" class="graph" transform="scale(1 1) rotate(0) translate(4 537)">
<title>g</title>
<polygon fill="white" stroke="none" points="-4,4 -4,-537 1716.24,-537 1716.24,4 -4,4"/>
<text text-anchor="start" x="668.619" y="-8.8" font-family="Times,serif" font-size="14.00">*Any edges missing from any node go to State  </text>
<text text-anchor="start" x="933.619" y="-8.8" font-family="Times,serif" font-style="italic" font-size="14.00">q</text>
<text text-anchor="start" x="940.619" y="-8.8" font-family="Times,serif" font-style="italic" baseline-shift="sub" font-size="14.00">13</text>
<text text-anchor="start" x="953.619" y="-8.8" font-family="Times,serif" font-size="14.00"> (the Trap State)</text>
<!-- S -->
<g id="node1" class="node"><title>S</title>
<ellipse fill="none" stroke="none" cx="27" cy="-122" rx="27" ry="18"/>
</g>
<!-- q1 -->
<g id="node2" class="node"><title>q1</title>
<ellipse fill="none" stroke="black" cx="118" cy="-122" rx="27" ry="18"/>
<text text-anchor="start" x="111" y="-119.3" font-family="Times,serif" font-style="italic" font-size="14.00">q</text>
<text text-anchor="start" x="118" y="-119.3" font-family="Times,serif" font-style="italic" baseline-shift="sub" font-size="14.00">1</text>
</g>
<!-- S&#45;&gt;q1 -->
<g id="edge1" class="edge"><title>S&#45;&gt;q1</title>
<path fill="none" stroke="black" d="M54.2216,-122C62.5505,-122 71.9135,-122 80.8161,-122"/>
<polygon fill="black" stroke="black" points="80.9659,-125.5 90.9659,-122 80.9658,-118.5 80.9659,-125.5"/>
</g>
<!-- q2 -->
<g id="node3" class="node"><title>q2</title>
<ellipse fill="none" stroke="black" cx="218" cy="-387" rx="27" ry="18"/>
<text text-anchor="start" x="211" y="-384.3" font-family="Times,serif" font-style="italic" font-size="14.00">q</text>
<text text-anchor="start" x="218" y="-384.3" font-family="Times,serif" font-style="italic" baseline-shift="sub" font-size="14.00">2</text>
</g>
<!-- q1&#45;&gt;q2 -->
<g id="edge2" class="edge"><title>q1&#45;&gt;q2</title>
<path fill="none" stroke="black" d="M125.43,-139.387C142.112,-184.497 186.875,-305.538 206.98,-359.906"/>
<polygon fill="black" stroke="black" points="203.795,-361.383 210.546,-369.549 210.36,-358.955 203.795,-361.383"/>
<text text-anchor="middle" x="168" y="-265.8" font-family="Times,serif" font-size="14.00">w</text>
</g>
<!-- q5 -->
<g id="node6" class="node"><title>q5</title>
<ellipse fill="none" stroke="black" cx="948" cy="-232" rx="27" ry="18"/>
<text text-anchor="start" x="941" y="-229.3" font-family="Times,serif" font-style="italic" font-size="14.00">q</text>
<text text-anchor="start" x="948" y="-229.3" font-family="Times,serif" font-style="italic" baseline-shift="sub" font-size="14.00">5</text>
</g>
<!-- q1&#45;&gt;q5 -->
<g id="edge5" class="edge"><title>q1&#45;&gt;q5</title>
<path fill="none" stroke="black" d="M126.446,-104.756C139.994,-76.3914 171.533,-23 217,-23 217,-23 217,-23 846,-23 925.316,-23 942.372,-146.533 946.019,-203.653"/>
<polygon fill="black" stroke="black" points="942.534,-204.022 946.57,-213.818 949.524,-203.643 942.534,-204.022"/>
<text text-anchor="start" x="501" y="-27.8" font-family="Times,serif" font-size="14.00">Γ</text>
<text text-anchor="start" x="510" y="-27.8" font-family="Times,serif" baseline-shift="sub" font-size="14.00">&#45;w</text>
</g>
<!-- q3 -->
<g id="node4" class="node"><title>q3</title>
<ellipse fill="none" stroke="black" cx="318" cy="-132" rx="27" ry="18"/>
<text text-anchor="start" x="311" y="-129.3" font-family="Times,serif" font-style="italic" font-size="14.00">q</text>
<text text-anchor="start" x="318" y="-129.3" font-family="Times,serif" font-style="italic" baseline-shift="sub" font-size="14.00">3</text>
</g>
<!-- q2&#45;&gt;q3 -->
<g id="edge3" class="edge"><title>q2&#45;&gt;q3</title>
<path fill="none" stroke="black" d="M225.736,-369.473C242.561,-325.694 286.514,-211.326 306.652,-158.927"/>
<polygon fill="black" stroke="black" points="310.026,-159.903 310.347,-149.313 303.492,-157.391 310.026,-159.903"/>
<text text-anchor="middle" x="268" y="-270.8" font-family="Times,serif" font-size="14.00">w</text>
</g>
<!-- q2&#45;&gt;q5 -->
<g id="edge7" class="edge"><title>q2&#45;&gt;q5</title>
<path fill="none" stroke="black" d="M228.308,-403.793C243.416,-428.565 275.785,-472 317,-472 317,-472 317,-472 846,-472 863.075,-472 865.164,-461.196 876,-448 892.525,-427.875 893.571,-420.274 903,-396 912.652,-371.154 930.624,-299.573 940.345,-259.683"/>
<polygon fill="black" stroke="black" points="943.785,-260.348 942.741,-249.805 936.982,-258.698 943.785,-260.348"/>
<text text-anchor="start" x="557" y="-476.8" font-family="Times,serif" font-size="14.00">Γ</text>
<text text-anchor="start" x="566" y="-476.8" font-family="Times,serif" baseline-shift="sub" font-size="14.00">&#45;w</text>
</g>
<!-- q7 -->
<g id="node8" class="node"><title>q7</title>
<ellipse fill="none" stroke="black" cx="1042" cy="-361" rx="27" ry="18"/>
<text text-anchor="start" x="1035" y="-358.3" font-family="Times,serif" font-style="italic" font-size="14.00">q</text>
<text text-anchor="start" x="1042" y="-358.3" font-family="Times,serif" font-style="italic" baseline-shift="sub" font-size="14.00">7</text>
</g>
<!-- q2&#45;&gt;q7 -->
<g id="edge12" class="edge"><title>q2&#45;&gt;q7</title>
<path fill="none" stroke="black" d="M223.301,-404.667C233.175,-440.425 261.046,-518 317,-518 317,-518 317,-518 949,-518 1008.08,-518 1029.94,-434.22 1037.43,-389.063"/>
<polygon fill="black" stroke="black" points="1040.91,-389.424 1038.96,-379.01 1033.99,-388.366 1040.91,-389.424"/>
<text text-anchor="middle" x="624" y="-521.8" font-family="Times,serif" font-size="14.00">.</text>
</g>
<!-- q4 -->
<g id="node5" class="node"><title>q4</title>
<ellipse fill="none" stroke="black" cx="418" cy="-158" rx="27" ry="18"/>
<text text-anchor="start" x="411" y="-155.3" font-family="Times,serif" font-style="italic" font-size="14.00">q</text>
<text text-anchor="start" x="418" y="-155.3" font-family="Times,serif" font-style="italic" baseline-shift="sub" font-size="14.00">4</text>
</g>
<!-- q3&#45;&gt;q4 -->
<g id="edge4" class="edge"><title>q3&#45;&gt;q4</title>
<path fill="none" stroke="black" d="M343.225,-138.427C355.122,-141.583 369.662,-145.441 382.68,-148.895"/>
<polygon fill="black" stroke="black" points="382.151,-152.375 392.714,-151.557 383.946,-145.609 382.151,-152.375"/>
<text text-anchor="middle" x="368" y="-148.8" font-family="Times,serif" font-size="14.00">w</text>
</g>
<!-- q3&#45;&gt;q5 -->
<g id="edge8" class="edge"><title>q3&#45;&gt;q5</title>
<path fill="none" stroke="black" d="M342.887,-124.325C362.562,-118.685 391.3,-112 417,-112 417,-112 417,-112 846,-112 894.081,-112 923.884,-169.087 937.75,-204.512"/>
<polygon fill="black" stroke="black" points="934.623,-206.144 941.393,-214.294 941.183,-203.701 934.623,-206.144"/>
<text text-anchor="start" x="613" y="-116.8" font-family="Times,serif" font-size="14.00">Γ</text>
<text text-anchor="start" x="622" y="-116.8" font-family="Times,serif" baseline-shift="sub" font-size="14.00">&#45;w</text>
</g>
<!-- q3&#45;&gt;q7 -->
<g id="edge13" class="edge"><title>q3&#45;&gt;q7</title>
<path fill="none" stroke="black" d="M331.443,-116.359C348.488,-96.8418 381.103,-66 417,-66 417,-66 417,-66 949,-66 1004.61,-66 1030.48,-259.446 1038.32,-333.039"/>
<polygon fill="black" stroke="black" points="1034.83,-333.402 1039.34,-342.991 1041.8,-332.684 1034.83,-333.402"/>
<text text-anchor="middle" x="673.5" y="-69.8" font-family="Times,serif" font-size="14.00">.</text>
</g>
<!-- q4&#45;&gt;q5 -->
<g id="edge9" class="edge"><title>q4&#45;&gt;q5</title>
<path fill="none" stroke="black" d="M444.854,-160.806C514.629,-168.504 712.541,-191.182 876,-218 887.77,-219.931 900.575,-222.355 912.029,-224.641"/>
<polygon fill="black" stroke="black" points="911.602,-228.126 922.098,-226.684 912.994,-221.266 911.602,-228.126"/>
<text text-anchor="middle" x="673.5" y="-191.8" font-family="Times,serif" font-size="14.00">Γ</text>
</g>
<!-- q6 -->
<g id="node7" class="node"><title>q6</title>
<ellipse fill="none" stroke="black" cx="512" cy="-201" rx="27" ry="18"/>
<text text-anchor="start" x="505" y="-198.3" font-family="Times,serif" font-style="italic" font-size="14.00">q</text>
<text text-anchor="start" x="512" y="-198.3" font-family="Times,serif" font-style="italic" baseline-shift="sub" font-size="14.00">6</text>
</g>
<!-- q4&#45;&gt;q6 -->
<g id="edge10" class="edge"><title>q4&#45;&gt;q6</title>
<path fill="none" stroke="black" d="M440.803,-168.19C452.489,-173.653 467.089,-180.476 479.942,-186.484"/>
<polygon fill="black" stroke="black" points="478.812,-189.819 489.354,-190.883 481.776,-183.478 478.812,-189.819"/>
<text text-anchor="middle" x="465" y="-182.8" font-family="Times,serif" font-size="14.00">.</text>
</g>
<!-- q5&#45;&gt;q5 -->
<g id="edge6" class="edge"><title>q5&#45;&gt;q5</title>
<path fill="none" stroke="black" d="M939.788,-249.41C938.255,-259.088 940.992,-268 948,-268 952.38,-268 955.092,-264.519 956.135,-259.545"/>
<polygon fill="black" stroke="black" points="959.636,-259.436 956.212,-249.41 952.636,-259.383 959.636,-259.436"/>
<text text-anchor="middle" x="948" y="-271.8" font-family="Times,serif" font-size="14.00">Γ</text>
</g>
<!-- q5&#45;&gt;q7 -->
<g id="edge14" class="edge"><title>q5&#45;&gt;q7</title>
<path fill="none" stroke="black" d="M960.466,-248.077C976.305,-270.286 1005.02,-310.546 1023.53,-336.51"/>
<polygon fill="black" stroke="black" points="1020.73,-338.611 1029.39,-344.72 1026.43,-334.546 1020.73,-338.611"/>
<text text-anchor="middle" x="995" y="-299.8" font-family="Times,serif" font-size="14.00">.</text>
</g>
<!-- q6&#45;&gt;q5 -->
<g id="edge11" class="edge"><title>q6&#45;&gt;q5</title>
<path fill="none" stroke="black" d="M539.171,-202.869C613.425,-208.173 825.553,-223.325 910.842,-229.417"/>
<polygon fill="black" stroke="black" points="910.845,-232.926 921.069,-230.148 911.344,-225.944 910.845,-232.926"/>
<text text-anchor="start" x="713.5" y="-221.8" font-family="Times,serif" font-size="14.00">Γ</text>
<text text-anchor="start" x="722.5" y="-221.8" font-family="Times,serif" baseline-shift="sub" font-size="14.00">&#45;c</text>
</g>
<!-- q14 -->
<g id="node14" class="node"><title>q14</title>
<ellipse fill="none" stroke="black" cx="624" cy="-287" rx="27" ry="18"/>
<text text-anchor="start" x="614" y="-284.3" font-family="Times,serif" font-style="italic" font-size="14.00">q</text>
<text text-anchor="start" x="621" y="-284.3" font-family="Times,serif" font-style="italic" baseline-shift="sub" font-size="14.00">14</text>
</g>
<!-- q6&#45;&gt;q14 -->
<g id="edge22" class="edge"><title>q6&#45;&gt;q14</title>
<path fill="none" stroke="black" d="M530.188,-214.438C548.244,-228.555 576.839,-250.911 597.521,-267.08"/>
<polygon fill="black" stroke="black" points="595.536,-269.971 605.57,-273.373 599.848,-264.456 595.536,-269.971"/>
<text text-anchor="middle" x="568" y="-254.8" font-family="Times,serif" font-size="14.00">c</text>
</g>
<!-- q8 -->
<g id="node9" class="node"><title>q8</title>
<ellipse fill="none" stroke="black" cx="1139" cy="-361" rx="27" ry="18"/>
<text text-anchor="start" x="1132" y="-358.3" font-family="Times,serif" font-style="italic" font-size="14.00">q</text>
<text text-anchor="start" x="1139" y="-358.3" font-family="Times,serif" font-style="italic" baseline-shift="sub" font-size="14.00">8</text>
</g>
<!-- q7&#45;&gt;q8 -->
<g id="edge15" class="edge"><title>q7&#45;&gt;q8</title>
<path fill="none" stroke="black" d="M1069.21,-361C1079.28,-361 1090.96,-361 1101.81,-361"/>
<polygon fill="black" stroke="black" points="1101.87,-364.5 1111.87,-361 1101.87,-357.5 1101.87,-364.5"/>
<text text-anchor="middle" x="1090.5" y="-364.8" font-family="Times,serif" font-size="14.00">c</text>
</g>
<!-- q9 -->
<g id="node10" class="node"><title>q9</title>
<ellipse fill="none" stroke="black" cx="1236" cy="-322" rx="27" ry="18"/>
<text text-anchor="start" x="1229" y="-319.3" font-family="Times,serif" font-style="italic" font-size="14.00">q</text>
<text text-anchor="start" x="1236" y="-319.3" font-family="Times,serif" font-style="italic" baseline-shift="sub" font-size="14.00">9</text>
</g>
<!-- q8&#45;&gt;q9 -->
<g id="edge16" class="edge"><title>q8&#45;&gt;q9</title>
<path fill="none" stroke="black" d="M1162.51,-351.758C1174.7,-346.755 1189.95,-340.493 1203.32,-335.006"/>
<polygon fill="black" stroke="black" points="1204.73,-338.212 1212.65,-331.176 1202.07,-331.736 1204.73,-338.212"/>
<text text-anchor="middle" x="1187.5" y="-345.8" font-family="Times,serif" font-size="14.00">o</text>
</g>
<!-- q10 -->
<g id="node11" class="node"><title>q10</title>
<ellipse fill="none" stroke="black" cx="1533" cy="-322" rx="27" ry="18"/>
<ellipse fill="none" stroke="black" cx="1533" cy="-322" rx="31" ry="22"/>
<text text-anchor="start" x="1523" y="-319.3" font-family="Times,serif" font-style="italic" font-size="14.00">q</text>
<text text-anchor="start" x="1530" y="-319.3" font-family="Times,serif" font-style="italic" baseline-shift="sub" font-size="14.00">10</text>
</g>
<!-- q8&#45;&gt;q10 -->
<g id="edge21" class="edge"><title>q8&#45;&gt;q10</title>
<path fill="none" stroke="black" d="M1164.83,-367.101C1183.9,-371.254 1210.96,-376 1235,-376 1235,-376 1235,-376 1433,-376 1460.12,-376 1486.87,-360.193 1505.72,-345.684"/>
<polygon fill="black" stroke="black" points="1507.95,-348.382 1513.54,-339.383 1503.56,-342.93 1507.95,-348.382"/>
<text text-anchor="middle" x="1330" y="-379.8" font-family="Times,serif" font-size="14.00">a</text>
</g>
<!-- q9&#45;&gt;q10 -->
<g id="edge17" class="edge"><title>q9&#45;&gt;q10</title>
<path fill="none" stroke="black" d="M1257.75,-311.073C1270.44,-305.019 1287.21,-298.105 1303,-295 1371.03,-281.623 1390.75,-282.783 1459,-295 1471.78,-297.288 1485.25,-301.663 1497.1,-306.235"/>
<polygon fill="black" stroke="black" points="1496.03,-309.578 1506.61,-310.081 1498.65,-303.088 1496.03,-309.578"/>
<text text-anchor="middle" x="1381" y="-288.8" font-family="Times,serif" font-size="14.00">m</text>
</g>
<!-- q11 -->
<g id="node12" class="node"><title>q11</title>
<ellipse fill="none" stroke="black" cx="1330" cy="-322" rx="27" ry="18"/>
<text text-anchor="start" x="1320" y="-319.3" font-family="Times,serif" font-style="italic" font-size="14.00">q</text>
<text text-anchor="start" x="1327" y="-319.3" font-family="Times,serif" font-style="italic" baseline-shift="sub" font-size="14.00">11</text>
</g>
<!-- q9&#45;&gt;q11 -->
<g id="edge18" class="edge"><title>q9&#45;&gt;q11</title>
<path fill="none" stroke="black" d="M1263.12,-322C1272.34,-322 1282.89,-322 1292.8,-322"/>
<polygon fill="black" stroke="black" points="1292.82,-325.5 1302.82,-322 1292.82,-318.5 1292.82,-325.5"/>
<text text-anchor="middle" x="1283" y="-325.8" font-family="Times,serif" font-size="14.00">.</text>
</g>
<!-- q13 -->
<g id="node17" class="node"><title>q13</title>
<ellipse fill="none" stroke="black" cx="1660.62" cy="-322" rx="51.7379" ry="25.4118"/>
<text text-anchor="start" x="1650.62" y="-325.8" font-family="Times,serif" font-style="italic" font-size="14.00">q</text>
<text text-anchor="start" x="1657.62" y="-325.8" font-family="Times,serif" font-style="italic" baseline-shift="sub" font-size="14.00">13</text>
<text text-anchor="start" x="1632.12" y="-311.8" font-family="Times,serif" font-size="14.00">Trap State</text>
</g>
<!-- q10&#45;&gt;q13 -->
<g id="edge32" class="edge"><title>q10&#45;&gt;q13</title>
<path fill="none" stroke="black" d="M1564.09,-322C1574.52,-322 1586.63,-322 1598.64,-322"/>
<polygon fill="black" stroke="black" points="1598.68,-325.5 1608.68,-322 1598.68,-318.5 1598.68,-325.5"/>
<text text-anchor="middle" x="1586.5" y="-325.8" font-family="Times,serif" font-size="14.00">Σ</text>
</g>
<!-- q12 -->
<g id="node13" class="node"><title>q12</title>
<ellipse fill="none" stroke="black" cx="1432" cy="-322" rx="27" ry="18"/>
<text text-anchor="start" x="1422" y="-319.3" font-family="Times,serif" font-style="italic" font-size="14.00">q</text>
<text text-anchor="start" x="1429" y="-319.3" font-family="Times,serif" font-style="italic" baseline-shift="sub" font-size="14.00">12</text>
</g>
<!-- q11&#45;&gt;q12 -->
<g id="edge19" class="edge"><title>q11&#45;&gt;q12</title>
<path fill="none" stroke="black" d="M1357.01,-322C1368.5,-322 1382.19,-322 1394.66,-322"/>
<polygon fill="black" stroke="black" points="1394.77,-325.5 1404.77,-322 1394.77,-318.5 1394.77,-325.5"/>
<text text-anchor="middle" x="1381" y="-325.8" font-family="Times,serif" font-size="14.00">c</text>
</g>
<!-- q12&#45;&gt;q10 -->
<g id="edge20" class="edge"><title>q12&#45;&gt;q10</title>
<path fill="none" stroke="black" d="M1459.01,-322C1469,-322 1480.64,-322 1491.66,-322"/>
<polygon fill="black" stroke="black" points="1491.96,-325.5 1501.96,-322 1491.96,-318.5 1491.96,-325.5"/>
<text text-anchor="middle" x="1480.5" y="-325.8" font-family="Times,serif" font-size="14.00">a</text>
</g>
<!-- q14&#45;&gt;q5 -->
<g id="edge27" class="edge"><title>q14&#45;&gt;q5</title>
<path fill="none" stroke="black" d="M646.614,-277.145C660.454,-271.249 678.952,-264.122 696,-260 771.043,-241.855 861.599,-235.424 910.827,-233.178"/>
<polygon fill="black" stroke="black" points="911.13,-236.668 920.973,-232.748 910.834,-229.674 911.13,-236.668"/>
<text text-anchor="start" x="768" y="-250.8" font-family="Times,serif" font-size="14.00">Γ</text>
<text text-anchor="start" x="777" y="-250.8" font-family="Times,serif" baseline-shift="sub" font-size="14.00">&#45;a,o</text>
</g>
<!-- q14&#45;&gt;q7 -->
<g id="edge28" class="edge"><title>q14&#45;&gt;q7</title>
<path fill="none" stroke="black" d="M628.449,-304.984C636.929,-343.195 662.587,-429 722,-429 722,-429 722,-429 949,-429 979.413,-429 1006.36,-404.671 1023.1,-385.118"/>
<polygon fill="black" stroke="black" points="1026.02,-387.075 1029.64,-377.115 1020.6,-382.649 1026.02,-387.075"/>
<text text-anchor="middle" x="845" y="-432.8" font-family="Times,serif" font-size="14.00">.</text>
</g>
<!-- q15 -->
<g id="node15" class="node"><title>q15</title>
<ellipse fill="none" stroke="black" cx="723" cy="-287" rx="27" ry="18"/>
<text text-anchor="start" x="713" y="-284.3" font-family="Times,serif" font-style="italic" font-size="14.00">q</text>
<text text-anchor="start" x="720" y="-284.3" font-family="Times,serif" font-style="italic" baseline-shift="sub" font-size="14.00">15</text>
</g>
<!-- q14&#45;&gt;q15 -->
<g id="edge23" class="edge"><title>q14&#45;&gt;q15</title>
<path fill="none" stroke="black" d="M651.25,-287C661.817,-287 674.184,-287 685.596,-287"/>
<polygon fill="black" stroke="black" points="685.729,-290.5 695.729,-287 685.729,-283.5 685.729,-290.5"/>
<text text-anchor="middle" x="673.5" y="-290.8" font-family="Times,serif" font-size="14.00">o</text>
</g>
<!-- q16 -->
<g id="node16" class="node"><title>q16</title>
<ellipse fill="none" stroke="black" cx="845" cy="-333" rx="27" ry="18"/>
<ellipse fill="none" stroke="black" cx="845" cy="-333" rx="31" ry="22"/>
<text text-anchor="start" x="835" y="-330.3" font-family="Times,serif" font-style="italic" font-size="14.00">q</text>
<text text-anchor="start" x="842" y="-330.3" font-family="Times,serif" font-style="italic" baseline-shift="sub" font-size="14.00">16</text>
</g>
<!-- q14&#45;&gt;q16 -->
<g id="edge26" class="edge"><title>q14&#45;&gt;q16</title>
<path fill="none" stroke="black" d="M646.726,-296.993C653.761,-300.064 661.647,-303.334 669,-306 713.453,-322.118 767.665,-328.615 803.861,-331.233"/>
<polygon fill="black" stroke="black" points="803.818,-334.738 814.026,-331.9 804.277,-327.753 803.818,-334.738"/>
<text text-anchor="middle" x="723" y="-328.8" font-family="Times,serif" font-size="14.00">a</text>
</g>
<!-- q15&#45;&gt;q5 -->
<g id="edge29" class="edge"><title>q15&#45;&gt;q5</title>
<path fill="none" stroke="black" d="M749.066,-281.944C783.833,-274.776 848.564,-260.867 903,-246 906.429,-245.063 909.99,-244.031 913.535,-242.965"/>
<polygon fill="black" stroke="black" points="914.844,-246.224 923.359,-239.919 912.771,-239.538 914.844,-246.224"/>
<text text-anchor="start" x="834" y="-271.8" font-family="Times,serif" font-size="14.00">Γ</text>
<text text-anchor="start" x="843" y="-271.8" font-family="Times,serif" baseline-shift="sub" font-size="14.00">&#45;m</text>
</g>
<!-- q15&#45;&gt;q7 -->
<g id="edge25" class="edge"><title>q15&#45;&gt;q7</title>
<path fill="none" stroke="black" d="M740.544,-301.021C743.755,-303.912 747.04,-306.994 750,-310 758.624,-318.76 758.941,-322.691 768,-331 786.543,-348.007 790.233,-355.74 814,-364 878.932,-386.568 960.755,-376.992 1006.31,-368.596"/>
<polygon fill="black" stroke="black" points="1007.12,-372.005 1016.27,-366.672 1005.79,-365.132 1007.12,-372.005"/>
<text text-anchor="middle" x="898.5" y="-380.8" font-family="Times,serif" font-size="14.00">.</text>
</g>
<!-- q15&#45;&gt;q16 -->
<g id="edge24" class="edge"><title>q15&#45;&gt;q16</title>
<path fill="none" stroke="black" d="M747.516,-294.648C761.666,-299.378 779.983,-305.727 796,-312 800.26,-313.668 804.699,-315.492 809.082,-317.345"/>
<polygon fill="black" stroke="black" points="807.928,-320.659 818.497,-321.401 810.697,-314.23 807.928,-320.659"/>
<text text-anchor="middle" x="782" y="-315.8" font-family="Times,serif" font-size="14.00">m</text>
</g>
<!-- q16&#45;&gt;q5 -->
<g id="edge30" class="edge"><title>q16&#45;&gt;q5</title>
<path fill="none" stroke="black" d="M867.573,-317.87C878.681,-309.62 892.136,-298.889 903,-288 912.551,-278.426 921.973,-266.811 929.632,-256.646"/>
<polygon fill="black" stroke="black" points="932.501,-258.653 935.615,-248.526 926.866,-254.5 932.501,-258.653"/>
<text text-anchor="middle" x="898.5" y="-299.8" font-family="Times,serif" font-size="14.00">Γ</text>
</g>
<!-- q16&#45;&gt;q7 -->
<g id="edge31" class="edge"><title>q16&#45;&gt;q7</title>
<path fill="none" stroke="black" d="M875.616,-337.253C910.481,-342.259 968.337,-350.566 1005.55,-355.91"/>
<polygon fill="black" stroke="black" points="1005.07,-359.377 1015.47,-357.334 1006.07,-352.448 1005.07,-359.377"/>
<text text-anchor="middle" x="948" y="-354.8" font-family="Times,serif" font-size="14.00">.</text>
</g>
<!-- q13&#45;&gt;q13 -->
<g id="edge33" class="edge"><title>q13&#45;&gt;q13</title>
<path fill="none" stroke="black" d="M1646.87,-346.57C1645.92,-356.792 1650.5,-365.456 1660.62,-365.456 1667.1,-365.456 1671.31,-361.9 1673.25,-356.657"/>
<polygon fill="black" stroke="black" points="1676.75,-356.896 1674.37,-346.57 1669.79,-356.123 1676.75,-356.896"/>
<text text-anchor="middle" x="1660.62" y="-369.256" font-family="Times,serif" font-size="14.00">Σ</text>
</g>
</g>
</svg>
